<?xml version="1.0" encoding="utf-8" standalone="no"?>
<!DOCTYPE svg PUBLIC "-//W3C//DTD SVG 1.1//EN"
  "http://www.w3.org/Graphics/SVG/1.1/DTD/svg11.dtd">
<svg xmlns:xlink="http://www.w3.org/1999/xlink" width="361.286219pt" height="213.011875pt" viewBox="0 0 361.286219 213.011875" xmlns="http://www.w3.org/2000/svg" version="1.1">
 <metadata>
  <rdf:RDF xmlns:dc="http://purl.org/dc/elements/1.1/" xmlns:cc="http://creativecommons.org/ns#" xmlns:rdf="http://www.w3.org/1999/02/22-rdf-syntax-ns#">
   <cc:Work>
    <dc:type rdf:resource="http://purl.org/dc/dcmitype/StillImage"/>
    <dc:date>2024-08-26T11:41:35.727349</dc:date>
    <dc:format>image/svg+xml</dc:format>
    <dc:creator>
     <cc:Agent>
      <dc:title>Matplotlib v3.9.2, https://matplotlib.org/</dc:title>
     </cc:Agent>
    </dc:creator>
   </cc:Work>
  </rdf:RDF>
 </metadata>
 <defs>
  <style type="text/css">*{stroke-linejoin: round; stroke-linecap: butt}</style>
 </defs>
 <g id="figure_1">
  <g id="patch_1">
   <path d="M 0 213.011875 
L 361.286219 213.011875 
L 361.286219 0 
L 0 0 
L 0 213.011875 
z
" style="fill: none"/>
  </g>
  <g id="axes_1">
   <g id="patch_2">
    <path d="M 61.62625 173.52 
L 340.62625 173.52 
L 340.62625 7.2 
L 61.62625 7.2 
L 61.62625 173.52 
z
" style="fill: none"/>
   </g>
   <g id="matplotlib.axis_1">
    <g id="xtick_1">
     <g id="line2d_1">
      <path d="M 63.92997 173.52 
L 63.92997 7.2 
" clip-path="url(#p2f4e87ff71)" style="fill: none; stroke-dasharray: 2.96,1.28; stroke-dashoffset: 0; stroke: #b0b0b0; stroke-width: 0.8"/>
     </g>
     <g id="line2d_2">
      <defs>
       <path id="m940b812a77" d="M 0 0 
L 0 3.5 
" style="stroke: #ffffff; stroke-width: 0.8"/>
      </defs>
      <g>
       <use xlink:href="#m940b812a77" x="63.92997" y="173.52" style="fill: #ffffff; stroke: #ffffff; stroke-width: 0.8"/>
      </g>
     </g>
     <g id="text_1">
      <!-- 10500 -->
      <g style="fill: #ffffff" transform="translate(48.02372 188.118438) scale(0.1 -0.1)">
       <defs>
        <path id="DejaVuSans-31" d="M 794 531 
L 1825 531 
L 1825 4091 
L 703 3866 
L 703 4441 
L 1819 4666 
L 2450 4666 
L 2450 531 
L 3481 531 
L 3481 0 
L 794 0 
L 794 531 
z
" transform="scale(0.015625)"/>
        <path id="DejaVuSans-30" d="M 2034 4250 
Q 1547 4250 1301 3770 
Q 1056 3291 1056 2328 
Q 1056 1369 1301 889 
Q 1547 409 2034 409 
Q 2525 409 2770 889 
Q 3016 1369 3016 2328 
Q 3016 3291 2770 3770 
Q 2525 4250 2034 4250 
z
M 2034 4750 
Q 2819 4750 3233 4129 
Q 3647 3509 3647 2328 
Q 3647 1150 3233 529 
Q 2819 -91 2034 -91 
Q 1250 -91 836 529 
Q 422 1150 422 2328 
Q 422 3509 836 4129 
Q 1250 4750 2034 4750 
z
" transform="scale(0.015625)"/>
        <path id="DejaVuSans-35" d="M 691 4666 
L 3169 4666 
L 3169 4134 
L 1269 4134 
L 1269 2991 
Q 1406 3038 1543 3061 
Q 1681 3084 1819 3084 
Q 2600 3084 3056 2656 
Q 3513 2228 3513 1497 
Q 3513 744 3044 326 
Q 2575 -91 1722 -91 
Q 1428 -91 1123 -41 
Q 819 9 494 109 
L 494 744 
Q 775 591 1075 516 
Q 1375 441 1709 441 
Q 2250 441 2565 725 
Q 2881 1009 2881 1497 
Q 2881 1984 2565 2268 
Q 2250 2553 1709 2553 
Q 1456 2553 1204 2497 
Q 953 2441 691 2322 
L 691 4666 
z
" transform="scale(0.015625)"/>
       </defs>
       <use xlink:href="#DejaVuSans-31"/>
       <use xlink:href="#DejaVuSans-30" x="63.623047"/>
       <use xlink:href="#DejaVuSans-35" x="127.246094"/>
       <use xlink:href="#DejaVuSans-30" x="190.869141"/>
       <use xlink:href="#DejaVuSans-30" x="254.492188"/>
      </g>
     </g>
    </g>
    <g id="xtick_2">
     <g id="line2d_3">
      <path d="M 103.108542 173.52 
L 103.108542 7.2 
" clip-path="url(#p2f4e87ff71)" style="fill: none; stroke-dasharray: 2.96,1.28; stroke-dashoffset: 0; stroke: #b0b0b0; stroke-width: 0.8"/>
     </g>
     <g id="line2d_4">
      <g>
       <use xlink:href="#m940b812a77" x="103.108542" y="173.52" style="fill: #ffffff; stroke: #ffffff; stroke-width: 0.8"/>
      </g>
     </g>
     <g id="text_2">
      <!-- 11000 -->
      <g style="fill: #ffffff" transform="translate(87.202292 188.118438) scale(0.1 -0.1)">
       <use xlink:href="#DejaVuSans-31"/>
       <use xlink:href="#DejaVuSans-31" x="63.623047"/>
       <use xlink:href="#DejaVuSans-30" x="127.246094"/>
       <use xlink:href="#DejaVuSans-30" x="190.869141"/>
       <use xlink:href="#DejaVuSans-30" x="254.492188"/>
      </g>
     </g>
    </g>
    <g id="xtick_3">
     <g id="line2d_5">
      <path d="M 142.287113 173.52 
L 142.287113 7.2 
" clip-path="url(#p2f4e87ff71)" style="fill: none; stroke-dasharray: 2.96,1.28; stroke-dashoffset: 0; stroke: #b0b0b0; stroke-width: 0.8"/>
     </g>
     <g id="line2d_6">
      <g>
       <use xlink:href="#m940b812a77" x="142.287113" y="173.52" style="fill: #ffffff; stroke: #ffffff; stroke-width: 0.8"/>
      </g>
     </g>
     <g id="text_3">
      <!-- 11500 -->
      <g style="fill: #ffffff" transform="translate(126.380863 188.118438) scale(0.1 -0.1)">
       <use xlink:href="#DejaVuSans-31"/>
       <use xlink:href="#DejaVuSans-31" x="63.623047"/>
       <use xlink:href="#DejaVuSans-35" x="127.246094"/>
       <use xlink:href="#DejaVuSans-30" x="190.869141"/>
       <use xlink:href="#DejaVuSans-30" x="254.492188"/>
      </g>
     </g>
    </g>
    <g id="xtick_4">
     <g id="line2d_7">
      <path d="M 181.465684 173.52 
L 181.465684 7.2 
" clip-path="url(#p2f4e87ff71)" style="fill: none; stroke-dasharray: 2.96,1.28; stroke-dashoffset: 0; stroke: #b0b0b0; stroke-width: 0.8"/>
     </g>
     <g id="line2d_8">
      <g>
       <use xlink:href="#m940b812a77" x="181.465684" y="173.52" style="fill: #ffffff; stroke: #ffffff; stroke-width: 0.8"/>
      </g>
     </g>
     <g id="text_4">
      <!-- 12000 -->
      <g style="fill: #ffffff" transform="translate(165.559434 188.118438) scale(0.1 -0.1)">
       <defs>
        <path id="DejaVuSans-32" d="M 1228 531 
L 3431 531 
L 3431 0 
L 469 0 
L 469 531 
Q 828 903 1448 1529 
Q 2069 2156 2228 2338 
Q 2531 2678 2651 2914 
Q 2772 3150 2772 3378 
Q 2772 3750 2511 3984 
Q 2250 4219 1831 4219 
Q 1534 4219 1204 4116 
Q 875 4013 500 3803 
L 500 4441 
Q 881 4594 1212 4672 
Q 1544 4750 1819 4750 
Q 2544 4750 2975 4387 
Q 3406 4025 3406 3419 
Q 3406 3131 3298 2873 
Q 3191 2616 2906 2266 
Q 2828 2175 2409 1742 
Q 1991 1309 1228 531 
z
" transform="scale(0.015625)"/>
       </defs>
       <use xlink:href="#DejaVuSans-31"/>
       <use xlink:href="#DejaVuSans-32" x="63.623047"/>
       <use xlink:href="#DejaVuSans-30" x="127.246094"/>
       <use xlink:href="#DejaVuSans-30" x="190.869141"/>
       <use xlink:href="#DejaVuSans-30" x="254.492188"/>
      </g>
     </g>
    </g>
    <g id="xtick_5">
     <g id="line2d_9">
      <path d="M 220.644255 173.52 
L 220.644255 7.2 
" clip-path="url(#p2f4e87ff71)" style="fill: none; stroke-dasharray: 2.96,1.28; stroke-dashoffset: 0; stroke: #b0b0b0; stroke-width: 0.8"/>
     </g>
     <g id="line2d_10">
      <g>
       <use xlink:href="#m940b812a77" x="220.644255" y="173.52" style="fill: #ffffff; stroke: #ffffff; stroke-width: 0.8"/>
      </g>
     </g>
     <g id="text_5">
      <!-- 12500 -->
      <g style="fill: #ffffff" transform="translate(204.738005 188.118438) scale(0.1 -0.1)">
       <use xlink:href="#DejaVuSans-31"/>
       <use xlink:href="#DejaVuSans-32" x="63.623047"/>
       <use xlink:href="#DejaVuSans-35" x="127.246094"/>
       <use xlink:href="#DejaVuSans-30" x="190.869141"/>
       <use xlink:href="#DejaVuSans-30" x="254.492188"/>
      </g>
     </g>
    </g>
    <g id="xtick_6">
     <g id="line2d_11">
      <path d="M 259.822827 173.52 
L 259.822827 7.2 
" clip-path="url(#p2f4e87ff71)" style="fill: none; stroke-dasharray: 2.96,1.28; stroke-dashoffset: 0; stroke: #b0b0b0; stroke-width: 0.8"/>
     </g>
     <g id="line2d_12">
      <g>
       <use xlink:href="#m940b812a77" x="259.822827" y="173.52" style="fill: #ffffff; stroke: #ffffff; stroke-width: 0.8"/>
      </g>
     </g>
     <g id="text_6">
      <!-- 13000 -->
      <g style="fill: #ffffff" transform="translate(243.916577 188.118438) scale(0.1 -0.1)">
       <defs>
        <path id="DejaVuSans-33" d="M 2597 2516 
Q 3050 2419 3304 2112 
Q 3559 1806 3559 1356 
Q 3559 666 3084 287 
Q 2609 -91 1734 -91 
Q 1441 -91 1130 -33 
Q 819 25 488 141 
L 488 750 
Q 750 597 1062 519 
Q 1375 441 1716 441 
Q 2309 441 2620 675 
Q 2931 909 2931 1356 
Q 2931 1769 2642 2001 
Q 2353 2234 1838 2234 
L 1294 2234 
L 1294 2753 
L 1863 2753 
Q 2328 2753 2575 2939 
Q 2822 3125 2822 3475 
Q 2822 3834 2567 4026 
Q 2313 4219 1838 4219 
Q 1578 4219 1281 4162 
Q 984 4106 628 3988 
L 628 4550 
Q 988 4650 1302 4700 
Q 1616 4750 1894 4750 
Q 2613 4750 3031 4423 
Q 3450 4097 3450 3541 
Q 3450 3153 3228 2886 
Q 3006 2619 2597 2516 
z
" transform="scale(0.015625)"/>
       </defs>
       <use xlink:href="#DejaVuSans-31"/>
       <use xlink:href="#DejaVuSans-33" x="63.623047"/>
       <use xlink:href="#DejaVuSans-30" x="127.246094"/>
       <use xlink:href="#DejaVuSans-30" x="190.869141"/>
       <use xlink:href="#DejaVuSans-30" x="254.492188"/>
      </g>
     </g>
    </g>
    <g id="xtick_7">
     <g id="line2d_13">
      <path d="M 299.001398 173.52 
L 299.001398 7.2 
" clip-path="url(#p2f4e87ff71)" style="fill: none; stroke-dasharray: 2.96,1.28; stroke-dashoffset: 0; stroke: #b0b0b0; stroke-width: 0.8"/>
     </g>
     <g id="line2d_14">
      <g>
       <use xlink:href="#m940b812a77" x="299.001398" y="173.52" style="fill: #ffffff; stroke: #ffffff; stroke-width: 0.8"/>
      </g>
     </g>
     <g id="text_7">
      <!-- 13500 -->
      <g style="fill: #ffffff" transform="translate(283.095148 188.118438) scale(0.1 -0.1)">
       <use xlink:href="#DejaVuSans-31"/>
       <use xlink:href="#DejaVuSans-33" x="63.623047"/>
       <use xlink:href="#DejaVuSans-35" x="127.246094"/>
       <use xlink:href="#DejaVuSans-30" x="190.869141"/>
       <use xlink:href="#DejaVuSans-30" x="254.492188"/>
      </g>
     </g>
    </g>
    <g id="xtick_8">
     <g id="line2d_15">
      <path d="M 338.179969 173.52 
L 338.179969 7.2 
" clip-path="url(#p2f4e87ff71)" style="fill: none; stroke-dasharray: 2.96,1.28; stroke-dashoffset: 0; stroke: #b0b0b0; stroke-width: 0.8"/>
     </g>
     <g id="line2d_16">
      <g>
       <use xlink:href="#m940b812a77" x="338.179969" y="173.52" style="fill: #ffffff; stroke: #ffffff; stroke-width: 0.8"/>
      </g>
     </g>
     <g id="text_8">
      <!-- 14000 -->
      <g style="fill: #ffffff" transform="translate(322.273719 188.118438) scale(0.1 -0.1)">
       <defs>
        <path id="DejaVuSans-34" d="M 2419 4116 
L 825 1625 
L 2419 1625 
L 2419 4116 
z
M 2253 4666 
L 3047 4666 
L 3047 1625 
L 3713 1625 
L 3713 1100 
L 3047 1100 
L 3047 0 
L 2419 0 
L 2419 1100 
L 313 1100 
L 313 1709 
L 2253 4666 
z
" transform="scale(0.015625)"/>
       </defs>
       <use xlink:href="#DejaVuSans-31"/>
       <use xlink:href="#DejaVuSans-34" x="63.623047"/>
       <use xlink:href="#DejaVuSans-30" x="127.246094"/>
       <use xlink:href="#DejaVuSans-30" x="190.869141"/>
       <use xlink:href="#DejaVuSans-30" x="254.492188"/>
      </g>
     </g>
    </g>
    <g id="text_9">
     <!-- Total Emissions [kg CO₂] -->
     <g style="fill: #ffffff" transform="translate(128.29 203.31625) scale(0.12 -0.12)">
      <defs>
       <path id="DejaVuSans-54" d="M -19 4666 
L 3928 4666 
L 3928 4134 
L 2272 4134 
L 2272 0 
L 1638 0 
L 1638 4134 
L -19 4134 
L -19 4666 
z
" transform="scale(0.015625)"/>
       <path id="DejaVuSans-6f" d="M 1959 3097 
Q 1497 3097 1228 2736 
Q 959 2375 959 1747 
Q 959 1119 1226 758 
Q 1494 397 1959 397 
Q 2419 397 2687 759 
Q 2956 1122 2956 1747 
Q 2956 2369 2687 2733 
Q 2419 3097 1959 3097 
z
M 1959 3584 
Q 2709 3584 3137 3096 
Q 3566 2609 3566 1747 
Q 3566 888 3137 398 
Q 2709 -91 1959 -91 
Q 1206 -91 779 398 
Q 353 888 353 1747 
Q 353 2609 779 3096 
Q 1206 3584 1959 3584 
z
" transform="scale(0.015625)"/>
       <path id="DejaVuSans-74" d="M 1172 4494 
L 1172 3500 
L 2356 3500 
L 2356 3053 
L 1172 3053 
L 1172 1153 
Q 1172 725 1289 603 
Q 1406 481 1766 481 
L 2356 481 
L 2356 0 
L 1766 0 
Q 1100 0 847 248 
Q 594 497 594 1153 
L 594 3053 
L 172 3053 
L 172 3500 
L 594 3500 
L 594 4494 
L 1172 4494 
z
" transform="scale(0.015625)"/>
       <path id="DejaVuSans-61" d="M 2194 1759 
Q 1497 1759 1228 1600 
Q 959 1441 959 1056 
Q 959 750 1161 570 
Q 1363 391 1709 391 
Q 2188 391 2477 730 
Q 2766 1069 2766 1631 
L 2766 1759 
L 2194 1759 
z
M 3341 1997 
L 3341 0 
L 2766 0 
L 2766 531 
Q 2569 213 2275 61 
Q 1981 -91 1556 -91 
Q 1019 -91 701 211 
Q 384 513 384 1019 
Q 384 1609 779 1909 
Q 1175 2209 1959 2209 
L 2766 2209 
L 2766 2266 
Q 2766 2663 2505 2880 
Q 2244 3097 1772 3097 
Q 1472 3097 1187 3025 
Q 903 2953 641 2809 
L 641 3341 
Q 956 3463 1253 3523 
Q 1550 3584 1831 3584 
Q 2591 3584 2966 3190 
Q 3341 2797 3341 1997 
z
" transform="scale(0.015625)"/>
       <path id="DejaVuSans-6c" d="M 603 4863 
L 1178 4863 
L 1178 0 
L 603 0 
L 603 4863 
z
" transform="scale(0.015625)"/>
       <path id="DejaVuSans-20" transform="scale(0.015625)"/>
       <path id="DejaVuSans-45" d="M 628 4666 
L 3578 4666 
L 3578 4134 
L 1259 4134 
L 1259 2753 
L 3481 2753 
L 3481 2222 
L 1259 2222 
L 1259 531 
L 3634 531 
L 3634 0 
L 628 0 
L 628 4666 
z
" transform="scale(0.015625)"/>
       <path id="DejaVuSans-6d" d="M 3328 2828 
Q 3544 3216 3844 3400 
Q 4144 3584 4550 3584 
Q 5097 3584 5394 3201 
Q 5691 2819 5691 2113 
L 5691 0 
L 5113 0 
L 5113 2094 
Q 5113 2597 4934 2840 
Q 4756 3084 4391 3084 
Q 3944 3084 3684 2787 
Q 3425 2491 3425 1978 
L 3425 0 
L 2847 0 
L 2847 2094 
Q 2847 2600 2669 2842 
Q 2491 3084 2119 3084 
Q 1678 3084 1418 2786 
Q 1159 2488 1159 1978 
L 1159 0 
L 581 0 
L 581 3500 
L 1159 3500 
L 1159 2956 
Q 1356 3278 1631 3431 
Q 1906 3584 2284 3584 
Q 2666 3584 2933 3390 
Q 3200 3197 3328 2828 
z
" transform="scale(0.015625)"/>
       <path id="DejaVuSans-69" d="M 603 3500 
L 1178 3500 
L 1178 0 
L 603 0 
L 603 3500 
z
M 603 4863 
L 1178 4863 
L 1178 4134 
L 603 4134 
L 603 4863 
z
" transform="scale(0.015625)"/>
       <path id="DejaVuSans-73" d="M 2834 3397 
L 2834 2853 
Q 2591 2978 2328 3040 
Q 2066 3103 1784 3103 
Q 1356 3103 1142 2972 
Q 928 2841 928 2578 
Q 928 2378 1081 2264 
Q 1234 2150 1697 2047 
L 1894 2003 
Q 2506 1872 2764 1633 
Q 3022 1394 3022 966 
Q 3022 478 2636 193 
Q 2250 -91 1575 -91 
Q 1294 -91 989 -36 
Q 684 19 347 128 
L 347 722 
Q 666 556 975 473 
Q 1284 391 1588 391 
Q 1994 391 2212 530 
Q 2431 669 2431 922 
Q 2431 1156 2273 1281 
Q 2116 1406 1581 1522 
L 1381 1569 
Q 847 1681 609 1914 
Q 372 2147 372 2553 
Q 372 3047 722 3315 
Q 1072 3584 1716 3584 
Q 2034 3584 2315 3537 
Q 2597 3491 2834 3397 
z
" transform="scale(0.015625)"/>
       <path id="DejaVuSans-6e" d="M 3513 2113 
L 3513 0 
L 2938 0 
L 2938 2094 
Q 2938 2591 2744 2837 
Q 2550 3084 2163 3084 
Q 1697 3084 1428 2787 
Q 1159 2491 1159 1978 
L 1159 0 
L 581 0 
L 581 3500 
L 1159 3500 
L 1159 2956 
Q 1366 3272 1645 3428 
Q 1925 3584 2291 3584 
Q 2894 3584 3203 3211 
Q 3513 2838 3513 2113 
z
" transform="scale(0.015625)"/>
       <path id="DejaVuSans-5b" d="M 550 4863 
L 1875 4863 
L 1875 4416 
L 1125 4416 
L 1125 -397 
L 1875 -397 
L 1875 -844 
L 550 -844 
L 550 4863 
z
" transform="scale(0.015625)"/>
       <path id="DejaVuSans-6b" d="M 581 4863 
L 1159 4863 
L 1159 1991 
L 2875 3500 
L 3609 3500 
L 1753 1863 
L 3688 0 
L 2938 0 
L 1159 1709 
L 1159 0 
L 581 0 
L 581 4863 
z
" transform="scale(0.015625)"/>
       <path id="DejaVuSans-67" d="M 2906 1791 
Q 2906 2416 2648 2759 
Q 2391 3103 1925 3103 
Q 1463 3103 1205 2759 
Q 947 2416 947 1791 
Q 947 1169 1205 825 
Q 1463 481 1925 481 
Q 2391 481 2648 825 
Q 2906 1169 2906 1791 
z
M 3481 434 
Q 3481 -459 3084 -895 
Q 2688 -1331 1869 -1331 
Q 1566 -1331 1297 -1286 
Q 1028 -1241 775 -1147 
L 775 -588 
Q 1028 -725 1275 -790 
Q 1522 -856 1778 -856 
Q 2344 -856 2625 -561 
Q 2906 -266 2906 331 
L 2906 616 
Q 2728 306 2450 153 
Q 2172 0 1784 0 
Q 1141 0 747 490 
Q 353 981 353 1791 
Q 353 2603 747 3093 
Q 1141 3584 1784 3584 
Q 2172 3584 2450 3431 
Q 2728 3278 2906 2969 
L 2906 3500 
L 3481 3500 
L 3481 434 
z
" transform="scale(0.015625)"/>
       <path id="DejaVuSans-43" d="M 4122 4306 
L 4122 3641 
Q 3803 3938 3442 4084 
Q 3081 4231 2675 4231 
Q 1875 4231 1450 3742 
Q 1025 3253 1025 2328 
Q 1025 1406 1450 917 
Q 1875 428 2675 428 
Q 3081 428 3442 575 
Q 3803 722 4122 1019 
L 4122 359 
Q 3791 134 3420 21 
Q 3050 -91 2638 -91 
Q 1578 -91 968 557 
Q 359 1206 359 2328 
Q 359 3453 968 4101 
Q 1578 4750 2638 4750 
Q 3056 4750 3426 4639 
Q 3797 4528 4122 4306 
z
" transform="scale(0.015625)"/>
       <path id="DejaVuSans-4f" d="M 2522 4238 
Q 1834 4238 1429 3725 
Q 1025 3213 1025 2328 
Q 1025 1447 1429 934 
Q 1834 422 2522 422 
Q 3209 422 3611 934 
Q 4013 1447 4013 2328 
Q 4013 3213 3611 3725 
Q 3209 4238 2522 4238 
z
M 2522 4750 
Q 3503 4750 4090 4092 
Q 4678 3434 4678 2328 
Q 4678 1225 4090 567 
Q 3503 -91 2522 -91 
Q 1538 -91 948 565 
Q 359 1222 359 2328 
Q 359 3434 948 4092 
Q 1538 4750 2522 4750 
z
" transform="scale(0.015625)"/>
       <path id="DejaVuSans-2082" d="M 838 332 
L 2163 332 
L 2163 -24 
L 294 -24 
L 294 319 
Q 400 416 597 591 
Q 1672 1544 1672 1838 
Q 1672 2044 1509 2170 
Q 1347 2297 1081 2297 
Q 919 2297 728 2242 
Q 538 2188 313 2079 
L 313 2463 
Q 553 2551 761 2594 
Q 969 2638 1147 2638 
Q 1600 2638 1872 2432 
Q 2144 2226 2144 1888 
Q 2144 1454 1109 566 
Q 934 416 838 332 
z
" transform="scale(0.015625)"/>
       <path id="DejaVuSans-5d" d="M 1947 4863 
L 1947 -844 
L 622 -844 
L 622 -397 
L 1369 -397 
L 1369 4416 
L 622 4416 
L 622 4863 
L 1947 4863 
z
" transform="scale(0.015625)"/>
      </defs>
      <use xlink:href="#DejaVuSans-54"/>
      <use xlink:href="#DejaVuSans-6f" x="44.083984"/>
      <use xlink:href="#DejaVuSans-74" x="105.265625"/>
      <use xlink:href="#DejaVuSans-61" x="144.474609"/>
      <use xlink:href="#DejaVuSans-6c" x="205.753906"/>
      <use xlink:href="#DejaVuSans-20" x="233.537109"/>
      <use xlink:href="#DejaVuSans-45" x="265.324219"/>
      <use xlink:href="#DejaVuSans-6d" x="328.507812"/>
      <use xlink:href="#DejaVuSans-69" x="425.919922"/>
      <use xlink:href="#DejaVuSans-73" x="453.703125"/>
      <use xlink:href="#DejaVuSans-73" x="505.802734"/>
      <use xlink:href="#DejaVuSans-69" x="557.902344"/>
      <use xlink:href="#DejaVuSans-6f" x="585.685547"/>
      <use xlink:href="#DejaVuSans-6e" x="646.867188"/>
      <use xlink:href="#DejaVuSans-73" x="710.246094"/>
      <use xlink:href="#DejaVuSans-20" x="762.345703"/>
      <use xlink:href="#DejaVuSans-5b" x="794.132812"/>
      <use xlink:href="#DejaVuSans-6b" x="833.146484"/>
      <use xlink:href="#DejaVuSans-67" x="891.056641"/>
      <use xlink:href="#DejaVuSans-20" x="954.533203"/>
      <use xlink:href="#DejaVuSans-43" x="986.320312"/>
      <use xlink:href="#DejaVuSans-4f" x="1056.144531"/>
      <use xlink:href="#DejaVuSans-2082" x="1134.855469"/>
      <use xlink:href="#DejaVuSans-5d" x="1174.943359"/>
     </g>
    </g>
   </g>
   <g id="matplotlib.axis_2">
    <g id="ytick_1">
     <g id="line2d_17">
      <path d="M 61.62625 157.206029 
L 340.62625 157.206029 
" clip-path="url(#p2f4e87ff71)" style="fill: none; stroke-dasharray: 2.96,1.28; stroke-dashoffset: 0; stroke: #b0b0b0; stroke-width: 0.8"/>
     </g>
     <g id="line2d_18">
      <defs>
       <path id="md3f389ed75" d="M 0 0 
L -3.5 0 
" style="stroke: #ffffff; stroke-width: 0.8"/>
      </defs>
      <g>
       <use xlink:href="#md3f389ed75" x="61.62625" y="157.206029" style="fill: #ffffff; stroke: #ffffff; stroke-width: 0.8"/>
      </g>
     </g>
     <g id="text_10">
      <!-- 11500 -->
      <g style="fill: #ffffff" transform="translate(22.81375 161.005247) scale(0.1 -0.1)">
       <use xlink:href="#DejaVuSans-31"/>
       <use xlink:href="#DejaVuSans-31" x="63.623047"/>
       <use xlink:href="#DejaVuSans-35" x="127.246094"/>
       <use xlink:href="#DejaVuSans-30" x="190.869141"/>
       <use xlink:href="#DejaVuSans-30" x="254.492188"/>
      </g>
     </g>
    </g>
    <g id="ytick_2">
     <g id="line2d_19">
      <path d="M 61.62625 133.719833 
L 340.62625 133.719833 
" clip-path="url(#p2f4e87ff71)" style="fill: none; stroke-dasharray: 2.96,1.28; stroke-dashoffset: 0; stroke: #b0b0b0; stroke-width: 0.8"/>
     </g>
     <g id="line2d_20">
      <g>
       <use xlink:href="#md3f389ed75" x="61.62625" y="133.719833" style="fill: #ffffff; stroke: #ffffff; stroke-width: 0.8"/>
      </g>
     </g>
     <g id="text_11">
      <!-- 12000 -->
      <g style="fill: #ffffff" transform="translate(22.81375 137.519052) scale(0.1 -0.1)">
       <use xlink:href="#DejaVuSans-31"/>
       <use xlink:href="#DejaVuSans-32" x="63.623047"/>
       <use xlink:href="#DejaVuSans-30" x="127.246094"/>
       <use xlink:href="#DejaVuSans-30" x="190.869141"/>
       <use xlink:href="#DejaVuSans-30" x="254.492188"/>
      </g>
     </g>
    </g>
    <g id="ytick_3">
     <g id="line2d_21">
      <path d="M 61.62625 110.233638 
L 340.62625 110.233638 
" clip-path="url(#p2f4e87ff71)" style="fill: none; stroke-dasharray: 2.96,1.28; stroke-dashoffset: 0; stroke: #b0b0b0; stroke-width: 0.8"/>
     </g>
     <g id="line2d_22">
      <g>
       <use xlink:href="#md3f389ed75" x="61.62625" y="110.233638" style="fill: #ffffff; stroke: #ffffff; stroke-width: 0.8"/>
      </g>
     </g>
     <g id="text_12">
      <!-- 12500 -->
      <g style="fill: #ffffff" transform="translate(22.81375 114.032856) scale(0.1 -0.1)">
       <use xlink:href="#DejaVuSans-31"/>
       <use xlink:href="#DejaVuSans-32" x="63.623047"/>
       <use xlink:href="#DejaVuSans-35" x="127.246094"/>
       <use xlink:href="#DejaVuSans-30" x="190.869141"/>
       <use xlink:href="#DejaVuSans-30" x="254.492188"/>
      </g>
     </g>
    </g>
    <g id="ytick_4">
     <g id="line2d_23">
      <path d="M 61.62625 86.747442 
L 340.62625 86.747442 
" clip-path="url(#p2f4e87ff71)" style="fill: none; stroke-dasharray: 2.96,1.28; stroke-dashoffset: 0; stroke: #b0b0b0; stroke-width: 0.8"/>
     </g>
     <g id="line2d_24">
      <g>
       <use xlink:href="#md3f389ed75" x="61.62625" y="86.747442" style="fill: #ffffff; stroke: #ffffff; stroke-width: 0.8"/>
      </g>
     </g>
     <g id="text_13">
      <!-- 13000 -->
      <g style="fill: #ffffff" transform="translate(22.81375 90.546661) scale(0.1 -0.1)">
       <use xlink:href="#DejaVuSans-31"/>
       <use xlink:href="#DejaVuSans-33" x="63.623047"/>
       <use xlink:href="#DejaVuSans-30" x="127.246094"/>
       <use xlink:href="#DejaVuSans-30" x="190.869141"/>
       <use xlink:href="#DejaVuSans-30" x="254.492188"/>
      </g>
     </g>
    </g>
    <g id="ytick_5">
     <g id="line2d_25">
      <path d="M 61.62625 63.261246 
L 340.62625 63.261246 
" clip-path="url(#p2f4e87ff71)" style="fill: none; stroke-dasharray: 2.96,1.28; stroke-dashoffset: 0; stroke: #b0b0b0; stroke-width: 0.8"/>
     </g>
     <g id="line2d_26">
      <g>
       <use xlink:href="#md3f389ed75" x="61.62625" y="63.261246" style="fill: #ffffff; stroke: #ffffff; stroke-width: 0.8"/>
      </g>
     </g>
     <g id="text_14">
      <!-- 13500 -->
      <g style="fill: #ffffff" transform="translate(22.81375 67.060465) scale(0.1 -0.1)">
       <use xlink:href="#DejaVuSans-31"/>
       <use xlink:href="#DejaVuSans-33" x="63.623047"/>
       <use xlink:href="#DejaVuSans-35" x="127.246094"/>
       <use xlink:href="#DejaVuSans-30" x="190.869141"/>
       <use xlink:href="#DejaVuSans-30" x="254.492188"/>
      </g>
     </g>
    </g>
    <g id="ytick_6">
     <g id="line2d_27">
      <path d="M 61.62625 39.775051 
L 340.62625 39.775051 
" clip-path="url(#p2f4e87ff71)" style="fill: none; stroke-dasharray: 2.96,1.28; stroke-dashoffset: 0; stroke: #b0b0b0; stroke-width: 0.8"/>
     </g>
     <g id="line2d_28">
      <g>
       <use xlink:href="#md3f389ed75" x="61.62625" y="39.775051" style="fill: #ffffff; stroke: #ffffff; stroke-width: 0.8"/>
      </g>
     </g>
     <g id="text_15">
      <!-- 14000 -->
      <g style="fill: #ffffff" transform="translate(22.81375 43.57427) scale(0.1 -0.1)">
       <use xlink:href="#DejaVuSans-31"/>
       <use xlink:href="#DejaVuSans-34" x="63.623047"/>
       <use xlink:href="#DejaVuSans-30" x="127.246094"/>
       <use xlink:href="#DejaVuSans-30" x="190.869141"/>
       <use xlink:href="#DejaVuSans-30" x="254.492188"/>
      </g>
     </g>
    </g>
    <g id="ytick_7">
     <g id="line2d_29">
      <path d="M 61.62625 16.288855 
L 340.62625 16.288855 
" clip-path="url(#p2f4e87ff71)" style="fill: none; stroke-dasharray: 2.96,1.28; stroke-dashoffset: 0; stroke: #b0b0b0; stroke-width: 0.8"/>
     </g>
     <g id="line2d_30">
      <g>
       <use xlink:href="#md3f389ed75" x="61.62625" y="16.288855" style="fill: #ffffff; stroke: #ffffff; stroke-width: 0.8"/>
      </g>
     </g>
     <g id="text_16">
      <!-- 14500 -->
      <g style="fill: #ffffff" transform="translate(22.81375 20.088074) scale(0.1 -0.1)">
       <use xlink:href="#DejaVuSans-31"/>
       <use xlink:href="#DejaVuSans-34" x="63.623047"/>
       <use xlink:href="#DejaVuSans-35" x="127.246094"/>
       <use xlink:href="#DejaVuSans-30" x="190.869141"/>
       <use xlink:href="#DejaVuSans-30" x="254.492188"/>
      </g>
     </g>
    </g>
    <g id="text_17">
     <!-- Total Cost [$] -->
     <g style="fill: #ffffff" transform="translate(16.318125 130.02375) rotate(-90) scale(0.12 -0.12)">
      <defs>
       <path id="DejaVuSans-24" d="M 2163 -941 
L 1850 -941 
L 1847 0 
Q 1519 6 1191 76 
Q 863 147 531 288 
L 531 850 
Q 850 650 1176 548 
Q 1503 447 1850 444 
L 1850 1869 
Q 1159 1981 845 2250 
Q 531 2519 531 2988 
Q 531 3497 872 3790 
Q 1213 4084 1850 4128 
L 1850 4863 
L 2163 4863 
L 2163 4138 
Q 2453 4125 2725 4076 
Q 2997 4028 3256 3944 
L 3256 3397 
Q 2997 3528 2723 3600 
Q 2450 3672 2163 3684 
L 2163 2350 
Q 2872 2241 3206 1959 
Q 3541 1678 3541 1191 
Q 3541 663 3186 358 
Q 2831 53 2163 6 
L 2163 -941 
z
M 1850 2406 
L 1850 3688 
Q 1488 3647 1297 3481 
Q 1106 3316 1106 3041 
Q 1106 2772 1282 2622 
Q 1459 2472 1850 2406 
z
M 2163 1806 
L 2163 453 
Q 2559 506 2761 678 
Q 2963 850 2963 1131 
Q 2963 1406 2770 1568 
Q 2578 1731 2163 1806 
z
" transform="scale(0.015625)"/>
      </defs>
      <use xlink:href="#DejaVuSans-54"/>
      <use xlink:href="#DejaVuSans-6f" x="44.083984"/>
      <use xlink:href="#DejaVuSans-74" x="105.265625"/>
      <use xlink:href="#DejaVuSans-61" x="144.474609"/>
      <use xlink:href="#DejaVuSans-6c" x="205.753906"/>
      <use xlink:href="#DejaVuSans-20" x="233.537109"/>
      <use xlink:href="#DejaVuSans-43" x="265.324219"/>
      <use xlink:href="#DejaVuSans-6f" x="335.148438"/>
      <use xlink:href="#DejaVuSans-73" x="396.330078"/>
      <use xlink:href="#DejaVuSans-74" x="448.429688"/>
      <use xlink:href="#DejaVuSans-20" x="487.638672"/>
      <use xlink:href="#DejaVuSans-5b" x="519.425781"/>
      <use xlink:href="#DejaVuSans-24" x="558.439453"/>
      <use xlink:href="#DejaVuSans-5d" x="622.0625"/>
     </g>
    </g>
   </g>
   <g id="line2d_31">
    <path d="M 74.308068 14.76 
L 74.440238 22.4996 
L 74.823211 29.78532 
L 75.439594 36.666278 
L 76.275243 43.183706 
L 77.318632 49.372511 
L 78.560379 55.262469 
L 79.992871 60.879155 
L 81.609988 66.244663 
L 83.406866 71.378187 
L 85.379728 76.296478 
L 87.52574 81.014216 
L 89.842894 85.544315 
L 92.329921 89.898167 
L 94.986216 94.085845 
L 97.811777 98.11628 
L 100.807165 101.997394 
L 103.973457 105.736224 
L 107.312227 109.339021 
L 110.825514 112.811332 
L 114.515817 116.158076 
L 118.386072 119.383601 
L 122.439658 122.491738 
L 126.680385 125.485844 
L 131.112501 128.368841 
L 135.740698 131.143246 
L 140.570119 133.811197 
L 145.60637 136.374479 
L 150.855539 138.834541 
L 156.324211 141.192508 
L 162.019496 143.449198 
L 167.949049 145.605128 
L 174.121107 147.660522 
L 180.544519 149.615313 
L 187.228786 151.469148 
L 194.184106 153.221381 
L 201.421423 154.871078 
L 208.952479 156.417005 
L 216.78988 157.857621 
L 224.947164 159.191069 
L 233.438874 160.415164 
L 242.28065 161.527372 
L 251.489324 162.524794 
L 261.083025 163.404144 
L 271.081309 164.16172 
L 281.505289 164.793372 
L 292.377798 165.294471 
L 303.723558 165.659863 
L 315.569389 165.883823 
L 327.944432 165.96 
" clip-path="url(#p2f4e87ff71)" style="fill: none; stroke: #1f77b4; stroke-width: 1.5; stroke-linecap: square"/>
    <defs>
     <path id="m20db550d01" d="M 0 3 
C 0.795609 3 1.55874 2.683901 2.12132 2.12132 
C 2.683901 1.55874 3 0.795609 3 0 
C 3 -0.795609 2.683901 -1.55874 2.12132 -2.12132 
C 1.55874 -2.683901 0.795609 -3 0 -3 
C -0.795609 -3 -1.55874 -2.683901 -2.12132 -2.12132 
C -2.683901 -1.55874 -3 -0.795609 -3 0 
C -3 0.795609 -2.683901 1.55874 -2.12132 2.12132 
C -1.55874 2.683901 -0.795609 3 0 3 
z
" style="stroke: #00008b"/>
    </defs>
    <g clip-path="url(#p2f4e87ff71)">
     <use xlink:href="#m20db550d01" x="74.308068" y="14.76" style="fill: #1f77b4; stroke: #00008b"/>
     <use xlink:href="#m20db550d01" x="74.440238" y="22.4996" style="fill: #1f77b4; stroke: #00008b"/>
     <use xlink:href="#m20db550d01" x="74.823211" y="29.78532" style="fill: #1f77b4; stroke: #00008b"/>
     <use xlink:href="#m20db550d01" x="75.439594" y="36.666278" style="fill: #1f77b4; stroke: #00008b"/>
     <use xlink:href="#m20db550d01" x="76.275243" y="43.183706" style="fill: #1f77b4; stroke: #00008b"/>
     <use xlink:href="#m20db550d01" x="77.318632" y="49.372511" style="fill: #1f77b4; stroke: #00008b"/>
     <use xlink:href="#m20db550d01" x="78.560379" y="55.262469" style="fill: #1f77b4; stroke: #00008b"/>
     <use xlink:href="#m20db550d01" x="79.992871" y="60.879155" style="fill: #1f77b4; stroke: #00008b"/>
     <use xlink:href="#m20db550d01" x="81.609988" y="66.244663" style="fill: #1f77b4; stroke: #00008b"/>
     <use xlink:href="#m20db550d01" x="83.406866" y="71.378187" style="fill: #1f77b4; stroke: #00008b"/>
     <use xlink:href="#m20db550d01" x="85.379728" y="76.296478" style="fill: #1f77b4; stroke: #00008b"/>
     <use xlink:href="#m20db550d01" x="87.52574" y="81.014216" style="fill: #1f77b4; stroke: #00008b"/>
     <use xlink:href="#m20db550d01" x="89.842894" y="85.544315" style="fill: #1f77b4; stroke: #00008b"/>
     <use xlink:href="#m20db550d01" x="92.329921" y="89.898167" style="fill: #1f77b4; stroke: #00008b"/>
     <use xlink:href="#m20db550d01" x="94.986216" y="94.085845" style="fill: #1f77b4; stroke: #00008b"/>
     <use xlink:href="#m20db550d01" x="97.811777" y="98.11628" style="fill: #1f77b4; stroke: #00008b"/>
     <use xlink:href="#m20db550d01" x="100.807165" y="101.997394" style="fill: #1f77b4; stroke: #00008b"/>
     <use xlink:href="#m20db550d01" x="103.973457" y="105.736224" style="fill: #1f77b4; stroke: #00008b"/>
     <use xlink:href="#m20db550d01" x="107.312227" y="109.339021" style="fill: #1f77b4; stroke: #00008b"/>
     <use xlink:href="#m20db550d01" x="110.825514" y="112.811332" style="fill: #1f77b4; stroke: #00008b"/>
     <use xlink:href="#m20db550d01" x="114.515817" y="116.158076" style="fill: #1f77b4; stroke: #00008b"/>
     <use xlink:href="#m20db550d01" x="118.386072" y="119.383601" style="fill: #1f77b4; stroke: #00008b"/>
     <use xlink:href="#m20db550d01" x="122.439658" y="122.491738" style="fill: #1f77b4; stroke: #00008b"/>
     <use xlink:href="#m20db550d01" x="126.680385" y="125.485844" style="fill: #1f77b4; stroke: #00008b"/>
     <use xlink:href="#m20db550d01" x="131.112501" y="128.368841" style="fill: #1f77b4; stroke: #00008b"/>
     <use xlink:href="#m20db550d01" x="135.740698" y="131.143246" style="fill: #1f77b4; stroke: #00008b"/>
     <use xlink:href="#m20db550d01" x="140.570119" y="133.811197" style="fill: #1f77b4; stroke: #00008b"/>
     <use xlink:href="#m20db550d01" x="145.60637" y="136.374479" style="fill: #1f77b4; stroke: #00008b"/>
     <use xlink:href="#m20db550d01" x="150.855539" y="138.834541" style="fill: #1f77b4; stroke: #00008b"/>
     <use xlink:href="#m20db550d01" x="156.324211" y="141.192508" style="fill: #1f77b4; stroke: #00008b"/>
     <use xlink:href="#m20db550d01" x="162.019496" y="143.449198" style="fill: #1f77b4; stroke: #00008b"/>
     <use xlink:href="#m20db550d01" x="167.949049" y="145.605128" style="fill: #1f77b4; stroke: #00008b"/>
     <use xlink:href="#m20db550d01" x="174.121107" y="147.660522" style="fill: #1f77b4; stroke: #00008b"/>
     <use xlink:href="#m20db550d01" x="180.544519" y="149.615313" style="fill: #1f77b4; stroke: #00008b"/>
     <use xlink:href="#m20db550d01" x="187.228786" y="151.469148" style="fill: #1f77b4; stroke: #00008b"/>
     <use xlink:href="#m20db550d01" x="194.184106" y="153.221381" style="fill: #1f77b4; stroke: #00008b"/>
     <use xlink:href="#m20db550d01" x="201.421423" y="154.871078" style="fill: #1f77b4; stroke: #00008b"/>
     <use xlink:href="#m20db550d01" x="208.952479" y="156.417005" style="fill: #1f77b4; stroke: #00008b"/>
     <use xlink:href="#m20db550d01" x="216.78988" y="157.857621" style="fill: #1f77b4; stroke: #00008b"/>
     <use xlink:href="#m20db550d01" x="224.947164" y="159.191069" style="fill: #1f77b4; stroke: #00008b"/>
     <use xlink:href="#m20db550d01" x="233.438874" y="160.415164" style="fill: #1f77b4; stroke: #00008b"/>
     <use xlink:href="#m20db550d01" x="242.28065" y="161.527372" style="fill: #1f77b4; stroke: #00008b"/>
     <use xlink:href="#m20db550d01" x="251.489324" y="162.524794" style="fill: #1f77b4; stroke: #00008b"/>
     <use xlink:href="#m20db550d01" x="261.083025" y="163.404144" style="fill: #1f77b4; stroke: #00008b"/>
     <use xlink:href="#m20db550d01" x="271.081309" y="164.16172" style="fill: #1f77b4; stroke: #00008b"/>
     <use xlink:href="#m20db550d01" x="281.505289" y="164.793372" style="fill: #1f77b4; stroke: #00008b"/>
     <use xlink:href="#m20db550d01" x="292.377798" y="165.294471" style="fill: #1f77b4; stroke: #00008b"/>
     <use xlink:href="#m20db550d01" x="303.723558" y="165.659863" style="fill: #1f77b4; stroke: #00008b"/>
     <use xlink:href="#m20db550d01" x="315.569389" y="165.883823" style="fill: #1f77b4; stroke: #00008b"/>
     <use xlink:href="#m20db550d01" x="327.944432" y="165.96" style="fill: #1f77b4; stroke: #00008b"/>
    </g>
   </g>
   <g id="line2d_32">
    <defs>
     <path id="m76183cdd6b" d="M 0 5 
C 1.326016 5 2.597899 4.473168 3.535534 3.535534 
C 4.473168 2.597899 5 1.326016 5 0 
C 5 -1.326016 4.473168 -2.597899 3.535534 -3.535534 
C 2.597899 -4.473168 1.326016 -5 0 -5 
C -1.326016 -5 -2.597899 -4.473168 -3.535534 -3.535534 
C -4.473168 -2.597899 -5 -1.326016 -5 0 
C -5 1.326016 -4.473168 2.597899 -3.535534 3.535534 
C -2.597899 4.473168 -1.326016 5 0 5 
z
" style="stroke: #006400"/>
    </defs>
    <g clip-path="url(#p2f4e87ff71)">
     <use xlink:href="#m76183cdd6b" x="327.944432" y="165.96" style="fill: #008000; stroke: #006400"/>
    </g>
   </g>
   <g id="line2d_33">
    <defs>
     <path id="m82978dd9b3" d="M 0 5 
C 1.326016 5 2.597899 4.473168 3.535534 3.535534 
C 4.473168 2.597899 5 1.326016 5 0 
C 5 -1.326016 4.473168 -2.597899 3.535534 -3.535534 
C 2.597899 -4.473168 1.326016 -5 0 -5 
C -1.326016 -5 -2.597899 -4.473168 -3.535534 -3.535534 
C -4.473168 -2.597899 -5 -1.326016 -5 0 
C -5 1.326016 -4.473168 2.597899 -3.535534 3.535534 
C -2.597899 4.473168 -1.326016 5 0 5 
z
" style="stroke: #8b0000"/>
    </defs>
    <g clip-path="url(#p2f4e87ff71)">
     <use xlink:href="#m82978dd9b3" x="74.308068" y="14.76" style="fill: #ff0000; stroke: #8b0000"/>
    </g>
   </g>
   <g id="line2d_34">
    <defs>
     <path id="mf5b8f8596b" d="M 0 5 
C 1.326016 5 2.597899 4.473168 3.535534 3.535534 
C 4.473168 2.597899 5 1.326016 5 0 
C 5 -1.326016 4.473168 -2.597899 3.535534 -3.535534 
C 2.597899 -4.473168 1.326016 -5 0 -5 
C -1.326016 -5 -2.597899 -4.473168 -3.535534 -3.535534 
C -4.473168 -2.597899 -5 -1.326016 -5 0 
C -5 1.326016 -4.473168 2.597899 -3.535534 3.535534 
C -2.597899 4.473168 -1.326016 5 0 5 
z
" style="stroke: #b8860b"/>
    </defs>
    <g clip-path="url(#p2f4e87ff71)">
     <use xlink:href="#mf5b8f8596b" x="74.308068" y="165.96" style="fill: #bfbf00; stroke: #b8860b"/>
    </g>
   </g>
   <g id="patch_3">
    <path d="M 61.62625 173.52 
L 61.62625 7.2 
" style="fill: none; stroke: #ffffff; stroke-width: 0.8; stroke-linejoin: miter; stroke-linecap: square"/>
   </g>
   <g id="patch_4">
    <path d="M 340.62625 173.52 
L 340.62625 7.2 
" style="fill: none; stroke: #ffffff; stroke-width: 0.8; stroke-linejoin: miter; stroke-linecap: square"/>
   </g>
   <g id="patch_5">
    <path d="M 61.62625 173.52 
L 340.62625 173.52 
" style="fill: none; stroke: #ffffff; stroke-width: 0.8; stroke-linejoin: miter; stroke-linecap: square"/>
   </g>
   <g id="patch_6">
    <path d="M 61.62625 7.2 
L 340.62625 7.2 
" style="fill: none; stroke: #ffffff; stroke-width: 0.8; stroke-linejoin: miter; stroke-linecap: square"/>
   </g>
   <g id="legend_1">
    <g id="patch_7">
     <path d="M 191.38625 82.96265 
L 322.605 82.96265 
Q 324.605 82.96265 324.605 80.96265 
L 324.605 23.25015 
Q 324.605 21.25015 322.605 21.25015 
L 191.38625 21.25015 
Q 189.38625 21.25015 189.38625 23.25015 
L 189.38625 80.96265 
Q 189.38625 82.96265 191.38625 82.96265 
z
" style="fill: #3b3b3b; stroke: #000000; stroke-linejoin: miter"/>
    </g>
    <g id="line2d_35">
     <path d="M 193.38625 29.348588 
L 203.38625 29.348588 
L 213.38625 29.348588 
" style="fill: none; stroke: #1f77b4; stroke-width: 1.5; stroke-linecap: square"/>
     <g>
      <use xlink:href="#m20db550d01" x="203.38625" y="29.348588" style="fill: #1f77b4; stroke: #00008b"/>
     </g>
    </g>
    <g id="text_18">
     <!-- Pareto Front -->
     <g style="fill: #ffffff" transform="translate(221.38625 32.848588) scale(0.1 -0.1)">
      <defs>
       <path id="DejaVuSans-50" d="M 1259 4147 
L 1259 2394 
L 2053 2394 
Q 2494 2394 2734 2622 
Q 2975 2850 2975 3272 
Q 2975 3691 2734 3919 
Q 2494 4147 2053 4147 
L 1259 4147 
z
M 628 4666 
L 2053 4666 
Q 2838 4666 3239 4311 
Q 3641 3956 3641 3272 
Q 3641 2581 3239 2228 
Q 2838 1875 2053 1875 
L 1259 1875 
L 1259 0 
L 628 0 
L 628 4666 
z
" transform="scale(0.015625)"/>
       <path id="DejaVuSans-72" d="M 2631 2963 
Q 2534 3019 2420 3045 
Q 2306 3072 2169 3072 
Q 1681 3072 1420 2755 
Q 1159 2438 1159 1844 
L 1159 0 
L 581 0 
L 581 3500 
L 1159 3500 
L 1159 2956 
Q 1341 3275 1631 3429 
Q 1922 3584 2338 3584 
Q 2397 3584 2469 3576 
Q 2541 3569 2628 3553 
L 2631 2963 
z
" transform="scale(0.015625)"/>
       <path id="DejaVuSans-65" d="M 3597 1894 
L 3597 1613 
L 953 1613 
Q 991 1019 1311 708 
Q 1631 397 2203 397 
Q 2534 397 2845 478 
Q 3156 559 3463 722 
L 3463 178 
Q 3153 47 2828 -22 
Q 2503 -91 2169 -91 
Q 1331 -91 842 396 
Q 353 884 353 1716 
Q 353 2575 817 3079 
Q 1281 3584 2069 3584 
Q 2775 3584 3186 3129 
Q 3597 2675 3597 1894 
z
M 3022 2063 
Q 3016 2534 2758 2815 
Q 2500 3097 2075 3097 
Q 1594 3097 1305 2825 
Q 1016 2553 972 2059 
L 3022 2063 
z
" transform="scale(0.015625)"/>
       <path id="DejaVuSans-46" d="M 628 4666 
L 3309 4666 
L 3309 4134 
L 1259 4134 
L 1259 2759 
L 3109 2759 
L 3109 2228 
L 1259 2228 
L 1259 0 
L 628 0 
L 628 4666 
z
" transform="scale(0.015625)"/>
      </defs>
      <use xlink:href="#DejaVuSans-50"/>
      <use xlink:href="#DejaVuSans-61" x="55.802734"/>
      <use xlink:href="#DejaVuSans-72" x="117.082031"/>
      <use xlink:href="#DejaVuSans-65" x="155.945312"/>
      <use xlink:href="#DejaVuSans-74" x="217.46875"/>
      <use xlink:href="#DejaVuSans-6f" x="256.677734"/>
      <use xlink:href="#DejaVuSans-20" x="317.859375"/>
      <use xlink:href="#DejaVuSans-46" x="349.646484"/>
      <use xlink:href="#DejaVuSans-72" x="399.916016"/>
      <use xlink:href="#DejaVuSans-6f" x="438.779297"/>
      <use xlink:href="#DejaVuSans-6e" x="499.960938"/>
      <use xlink:href="#DejaVuSans-74" x="563.339844"/>
     </g>
    </g>
    <g id="line2d_36">
     <g>
      <use xlink:href="#m76183cdd6b" x="203.38625" y="44.026713" style="fill: #008000; stroke: #006400"/>
     </g>
    </g>
    <g id="text_19">
     <!-- Minimum Cost -->
     <g style="fill: #ffffff" transform="translate(221.38625 47.526713) scale(0.1 -0.1)">
      <defs>
       <path id="DejaVuSans-4d" d="M 628 4666 
L 1569 4666 
L 2759 1491 
L 3956 4666 
L 4897 4666 
L 4897 0 
L 4281 0 
L 4281 4097 
L 3078 897 
L 2444 897 
L 1241 4097 
L 1241 0 
L 628 0 
L 628 4666 
z
" transform="scale(0.015625)"/>
       <path id="DejaVuSans-75" d="M 544 1381 
L 544 3500 
L 1119 3500 
L 1119 1403 
Q 1119 906 1312 657 
Q 1506 409 1894 409 
Q 2359 409 2629 706 
Q 2900 1003 2900 1516 
L 2900 3500 
L 3475 3500 
L 3475 0 
L 2900 0 
L 2900 538 
Q 2691 219 2414 64 
Q 2138 -91 1772 -91 
Q 1169 -91 856 284 
Q 544 659 544 1381 
z
M 1991 3584 
L 1991 3584 
z
" transform="scale(0.015625)"/>
      </defs>
      <use xlink:href="#DejaVuSans-4d"/>
      <use xlink:href="#DejaVuSans-69" x="86.279297"/>
      <use xlink:href="#DejaVuSans-6e" x="114.0625"/>
      <use xlink:href="#DejaVuSans-69" x="177.441406"/>
      <use xlink:href="#DejaVuSans-6d" x="205.224609"/>
      <use xlink:href="#DejaVuSans-75" x="302.636719"/>
      <use xlink:href="#DejaVuSans-6d" x="366.015625"/>
      <use xlink:href="#DejaVuSans-20" x="463.427734"/>
      <use xlink:href="#DejaVuSans-43" x="495.214844"/>
      <use xlink:href="#DejaVuSans-6f" x="565.039062"/>
      <use xlink:href="#DejaVuSans-73" x="626.220703"/>
      <use xlink:href="#DejaVuSans-74" x="678.320312"/>
     </g>
    </g>
    <g id="line2d_37">
     <g>
      <use xlink:href="#m82978dd9b3" x="203.38625" y="58.704837" style="fill: #ff0000; stroke: #8b0000"/>
     </g>
    </g>
    <g id="text_20">
     <!-- Minimum Emissions -->
     <g style="fill: #ffffff" transform="translate(221.38625 62.204837) scale(0.1 -0.1)">
      <use xlink:href="#DejaVuSans-4d"/>
      <use xlink:href="#DejaVuSans-69" x="86.279297"/>
      <use xlink:href="#DejaVuSans-6e" x="114.0625"/>
      <use xlink:href="#DejaVuSans-69" x="177.441406"/>
      <use xlink:href="#DejaVuSans-6d" x="205.224609"/>
      <use xlink:href="#DejaVuSans-75" x="302.636719"/>
      <use xlink:href="#DejaVuSans-6d" x="366.015625"/>
      <use xlink:href="#DejaVuSans-20" x="463.427734"/>
      <use xlink:href="#DejaVuSans-45" x="495.214844"/>
      <use xlink:href="#DejaVuSans-6d" x="558.398438"/>
      <use xlink:href="#DejaVuSans-69" x="655.810547"/>
      <use xlink:href="#DejaVuSans-73" x="683.59375"/>
      <use xlink:href="#DejaVuSans-73" x="735.693359"/>
      <use xlink:href="#DejaVuSans-69" x="787.792969"/>
      <use xlink:href="#DejaVuSans-6f" x="815.576172"/>
      <use xlink:href="#DejaVuSans-6e" x="876.757812"/>
      <use xlink:href="#DejaVuSans-73" x="940.136719"/>
     </g>
    </g>
    <g id="line2d_38">
     <g>
      <use xlink:href="#mf5b8f8596b" x="203.38625" y="73.382963" style="fill: #bfbf00; stroke: #b8860b"/>
     </g>
    </g>
    <g id="text_21">
     <!-- Utopian Point -->
     <g style="fill: #ffffff" transform="translate(221.38625 76.882963) scale(0.1 -0.1)">
      <defs>
       <path id="DejaVuSans-55" d="M 556 4666 
L 1191 4666 
L 1191 1831 
Q 1191 1081 1462 751 
Q 1734 422 2344 422 
Q 2950 422 3222 751 
Q 3494 1081 3494 1831 
L 3494 4666 
L 4128 4666 
L 4128 1753 
Q 4128 841 3676 375 
Q 3225 -91 2344 -91 
Q 1459 -91 1007 375 
Q 556 841 556 1753 
L 556 4666 
z
" transform="scale(0.015625)"/>
       <path id="DejaVuSans-70" d="M 1159 525 
L 1159 -1331 
L 581 -1331 
L 581 3500 
L 1159 3500 
L 1159 2969 
Q 1341 3281 1617 3432 
Q 1894 3584 2278 3584 
Q 2916 3584 3314 3078 
Q 3713 2572 3713 1747 
Q 3713 922 3314 415 
Q 2916 -91 2278 -91 
Q 1894 -91 1617 61 
Q 1341 213 1159 525 
z
M 3116 1747 
Q 3116 2381 2855 2742 
Q 2594 3103 2138 3103 
Q 1681 3103 1420 2742 
Q 1159 2381 1159 1747 
Q 1159 1113 1420 752 
Q 1681 391 2138 391 
Q 2594 391 2855 752 
Q 3116 1113 3116 1747 
z
" transform="scale(0.015625)"/>
      </defs>
      <use xlink:href="#DejaVuSans-55"/>
      <use xlink:href="#DejaVuSans-74" x="73.193359"/>
      <use xlink:href="#DejaVuSans-6f" x="112.402344"/>
      <use xlink:href="#DejaVuSans-70" x="173.583984"/>
      <use xlink:href="#DejaVuSans-69" x="237.060547"/>
      <use xlink:href="#DejaVuSans-61" x="264.84375"/>
      <use xlink:href="#DejaVuSans-6e" x="326.123047"/>
      <use xlink:href="#DejaVuSans-20" x="389.501953"/>
      <use xlink:href="#DejaVuSans-50" x="421.289062"/>
      <use xlink:href="#DejaVuSans-6f" x="477.966797"/>
      <use xlink:href="#DejaVuSans-69" x="539.148438"/>
      <use xlink:href="#DejaVuSans-6e" x="566.931641"/>
      <use xlink:href="#DejaVuSans-74" x="630.310547"/>
     </g>
    </g>
   </g>
  </g>
 </g>
 <defs>
  <clipPath id="p2f4e87ff71">
   <rect x="61.62625" y="7.2" width="279" height="166.32"/>
  </clipPath>
 </defs>
</svg>
